<?xml version="1.0" encoding="UTF-8"?><svg id="a" xmlns="http://www.w3.org/2000/svg" xmlns:xlink="http://www.w3.org/1999/xlink" viewBox="0 0 1024 1024"><defs><style>.q{stroke:url(#i);}.q,.r,.s,.t,.u,.v,.w,.x,.y,.z,.aa,.ab,.ac,.ad{fill:none;stroke-linecap:round;stroke-linejoin:round;stroke-width:18px;}.r{stroke:url(#p);}.s{stroke:url(#e);}.t{stroke:url(#c);}.u{stroke:url(#k);}.v{stroke:url(#g);}.w{stroke:url(#m);}.x{stroke:url(#h);}.y{stroke:url(#l);}.z{stroke:url(#o);}.aa{stroke:url(#n);}.ab{stroke:url(#f);}.ac{stroke:url(#d);}.ae{fill:url(#b);stroke:#231f20;stroke-miterlimit:10;}.ad{stroke:url(#j);}</style><linearGradient id="b" x1="162.3" y1="1117.7" x2="861.7" y2="-93.7" gradientTransform="translate(0 1024) scale(1 -1)" gradientUnits="userSpaceOnUse"><stop offset="0" stop-color="#51d6ff"/><stop offset="1" stop-color="#6daedb"/></linearGradient><linearGradient id="c" x1="449.12" y1="266.9" x2="574.88" y2="266.9" gradientUnits="userSpaceOnUse"><stop offset="0" stop-color="#083d77"/><stop offset="1" stop-color="#0d63bf"/></linearGradient><linearGradient id="d" x1="543.87" y1="391.71" x2="621.36" y2="391.71" xlink:href="#c"/><linearGradient id="e" x1="402.64" y1="391.71" x2="480.13" y2="391.71" xlink:href="#c"/><linearGradient id="f" x1="688.76" y1="671.92" x2="814.52" y2="671.92" xlink:href="#c"/><linearGradient id="g" x1="783.51" y1="796.73" x2="861" y2="796.73" xlink:href="#c"/><linearGradient id="h" x1="363.72" y1="796.73" x2="719.77" y2="796.73" xlink:href="#c"/><linearGradient id="i" x1="209.48" y1="671.92" x2="335.24" y2="671.92" xlink:href="#c"/><linearGradient id="j" x1="163" y1="796.73" x2="240.49" y2="796.73" xlink:href="#c"/><linearGradient id="k" x1="304.23" y1="796.73" x2="381.72" y2="796.73" xlink:href="#c"/><linearGradient id="l" x1="608.85" y1="433.15" x2="776.16" y2="433.15" xlink:href="#c"/><linearGradient id="m" x1="247.84" y1="433.15" x2="415.15" y2="433.15" xlink:href="#c"/><linearGradient id="n" x1="503" y1="526.33" x2="521" y2="526.33" xlink:href="#c"/><linearGradient id="o" x1="543.87" y1="654.64" x2="637.29" y2="654.64" xlink:href="#c"/><linearGradient id="p" x1="386.71" y1="639.91" x2="521" y2="639.91" xlink:href="#c"/></defs><rect class="ae" width="1024" height="1024"/><path class="t" d="M565.88,258.37c0-32.54-24.12-58.92-53.88-58.92s-53.88,26.38-53.88,58.92,24.12,75.97,53.88,75.97,53.88-43.43,53.88-75.97Z"/><path class="ac" d="M612.36,419.52l-8.31-17.45c-6.27-13.15-17.11-23.58-30.5-29.32l-20.67-8.86"/><path class="s" d="M411.64,419.52l8.31-17.45c6.27-13.15,17.11-23.58,30.5-29.32l20.67-8.86"/><path class="ab" d="M805.52,663.4c0-32.54-24.12-58.92-53.88-58.92s-53.88,26.38-53.88,58.92,24.12,75.97,53.88,75.97,53.88-43.43,53.88-75.97Z"/><path class="v" d="M852,824.55l-8.31-17.45c-6.27-13.15-17.11-23.58-30.5-29.32l-20.67-8.86"/><path class="x" d="M710.77,768.92l-20.67,8.86c-13.39,5.74-24.24,16.16-30.5,29.32l-8.31,17.45h-278.57"/><path class="q" d="M218.48,663.4c0-32.54,24.12-58.92,53.88-58.92s53.88,26.38,53.88,58.92-24.12,75.97-53.88,75.97-53.88-43.43-53.88-75.97Z"/><path class="ad" d="M172,824.55l8.31-17.45c6.27-13.15,17.11-23.58,30.5-29.32l20.67-8.86"/><path class="u" d="M372.72,824.55l-8.31-17.45c-6.27-13.15-17.11-23.58-30.5-29.32l-20.67-8.86"/><path class="y" d="M617.85,325.43h78.86c38.91,0,70.45,31.54,70.45,70.45v145"/><path class="w" d="M406.15,325.43h-78.86c-38.91,0-70.45,31.54-70.45,70.45v145"/><line class="aa" x1="512" y1="454.65" x2="512" y2="598"/><line class="z" x1="628.29" y1="681.82" x2="552.87" y2="627.46"/><line class="r" x1="395.71" y1="681.82" x2="512" y2="598"/></svg>